<svg viewBox="0 0 1024 448" version="1.1" xmlns="http://www.w3.org/2000/svg"
  xmlns:xlink="http://www.w3.org/1999/xlink" xml:space="preserve"
  xmlns:serif="http://www.serif.com/"
  style="fill-rule:evenodd;clip-rule:evenodd;stroke-linecap:round;stroke-linejoin:round;stroke-miterlimit:1.5;">
  <defs>
    <linearGradient id="lgradb" x1="0%" y1="0%" x2="100%" y2="90%">
      <stop offset="0%" style="stop-color:#2eaab6;stop-opacity:1" />
      <stop offset="100%" style="stop-color:#4bb68a;stop-opacity:1" />
    </linearGradient>
    <linearGradient id="lgrado1" x1="0%" y1="90%" x2="100%" y2="0%">
      <stop offset="0%" style="stop-color:#4bb68a;stop-opacity:1" />
      <stop offset="100%" style="stop-color:#eed555;stop-opacity:1" />
    </linearGradient>
  </defs>
  <rect id="Artboard1" x="0" y="-288" width="1024" height="1024" style="fill:none;"/>
  <g id="Artboard11" serif:id="Artboard1">
    <g id="text" stroke-width="20px" stroke-miterlimit="1">
      <path id="b"  fill="url(#lgradb)" stroke="url(#lgradb)" d="M50.02,232.781C49.992,215.785 49.995,198.242 50.02,182.211L50.02,232.781ZM50.02,182.211L50.02,106.172C50.02,96.122 58.179,87.962 68.23,87.962L121.72,87.962C113.069,88.023 105.114,88.151 98.177,88.378C63.456,89.512 50.48,94.863 50.203,132.162C50.119,143.384 50.052,161.54 50.02,182.211ZM121.72,87.962C131.044,87.897 141.178,87.91 151.721,87.962L121.72,87.962ZM151.721,87.962L154.939,87.962L154.939,87.979C153.863,87.973 152.789,87.968 151.721,87.962ZM154.939,87.962L228.746,87.962C238.797,87.962 246.957,96.122 246.957,106.172L246.957,342.876C246.957,352.926 238.797,361.086 228.746,361.086L68.23,361.086C58.179,361.086 50.02,352.926 50.02,342.876L50.02,232.781C50.077,267.775 50.266,300.444 50.67,312.796C51.805,347.518 57.155,360.493 94.455,360.77C132.297,361.052 172.277,361.367 198.363,360.515C233.084,359.38 246.06,354.03 246.337,316.73C246.353,314.605 246.37,312.232 246.387,309.641C246.843,308.021 246.836,306.294 246.421,304.471C246.715,258.292 247.135,160.017 246.361,136.322C246.355,136.142 246.349,135.963 246.343,135.784L246.337,112.335C246.337,112.335 240.047,88.939 211.729,88.45C183.411,87.962 154.939,87.962 154.939,87.962ZM246.387,309.641C246.387,309.643 246.386,309.644 246.386,309.646L246.385,304.314C246.397,304.366 246.409,304.419 246.421,304.471C246.41,306.276 246.398,308.002 246.387,309.641ZM154.939,87.979C170.448,88.067 186.742,88.23 202.576,88.348C239.682,88.624 245.17,101.467 246.343,135.784L246.385,304.314C242.446,287.875 205.646,263.613 174.822,238.041C170.026,234.062 162.242,227.037 158.711,220.614C154.709,213.333 154.424,198.899 154.424,198.899L154.939,87.979Z"/>
      <path id="o1" fill="url(#lgrado1)" stroke="url(#lgrado1)" d="M489.98,214.731C490.008,231.727 490.005,249.27 489.98,265.301L489.98,214.731ZM489.98,265.301L489.98,341.339C489.98,351.39 481.821,359.55 471.77,359.55L418.28,359.55C426.931,359.489 434.886,359.361 441.823,359.134C476.544,357.999 489.52,352.649 489.797,315.349C489.881,304.128 489.948,285.972 489.98,265.301ZM418.28,359.55C408.956,359.615 398.822,359.602 388.279,359.55L418.28,359.55ZM388.279,359.55L385.061,359.55L385.061,359.532C386.137,359.538 387.211,359.544 388.279,359.55ZM385.061,359.55L311.254,359.55C301.203,359.55 293.043,351.39 293.043,341.339L293.043,104.636C293.043,94.586 301.203,86.426 311.254,86.426L471.77,86.426C481.821,86.426 489.98,94.586 489.98,104.636L489.98,214.731C489.923,179.737 489.734,147.068 489.33,134.716C488.195,99.994 482.845,87.019 445.545,86.741C407.703,86.46 367.723,86.145 341.637,86.997C306.916,88.132 293.94,93.482 293.663,130.782C293.647,132.907 293.63,135.28 293.613,137.871C293.157,139.491 293.164,141.218 293.579,143.041C293.285,189.22 292.865,287.495 293.639,311.189C293.645,311.369 293.651,311.549 293.657,311.728L293.663,335.177C293.663,335.177 299.953,358.573 328.271,359.061C356.589,359.55 385.061,359.55 385.061,359.55ZM293.613,137.871C293.613,137.869 293.614,137.868 293.614,137.866L293.615,143.198C293.603,143.145 293.591,143.093 293.579,143.041C293.59,141.236 293.602,139.51 293.613,137.871ZM385.061,359.532C369.552,359.445 353.258,359.282 337.424,359.164C300.318,358.888 294.83,346.045 293.657,311.728L293.615,143.198C297.554,159.637 334.354,183.899 365.178,209.471C369.974,213.45 377.758,220.475 381.289,226.898C385.291,234.179 385.576,248.613 385.576,248.613L385.061,359.532Z"/>
    </g>
  </g>
</svg>
