<svg viewBox="0 0 1024 448" version="1.1" xmlns="http://www.w3.org/2000/svg"
  xmlns:xlink="http://www.w3.org/1999/xlink" xml:space="preserve"
  xmlns:serif="http://www.serif.com/"
  style="fill-rule:evenodd;clip-rule:evenodd;stroke-linecap:round;stroke-linejoin:round;stroke-miterlimit:1.5;">
  <defs>
    <linearGradient id="lgrado2" x1="0%" y1="0%" x2="100%" y2="90%">
      <stop offset="0%" style="stop-color:#eed555;stop-opacity:1" />
      <stop offset="100%" style="stop-color:#c9377b;stop-opacity:1" />
    </linearGradient>
    <linearGradient id="lgradk" x1="0%" y1="90%" x2="100%" y2="0%">
      <stop offset="0%" style="stop-color:#c9377b;stop-opacity:1" />
      <stop offset="100%" style="stop-color:#6e3370;stop-opacity:1" />
    </linearGradient>
  </defs>
  <rect id="Artboard1" x="0" y="-288" width="1024" height="1024" style="fill:none;"/>
  <g id="Artboard11" serif:id="Artboard1">
    <g id="text" stroke-width="20px" stroke-miterlimit="1">
      <path id="o2" fill="url(#lgrado2)" stroke="url(#lgrado2)" d="M731.98,214.731C732.008,231.727 732.005,249.27 731.98,265.301L731.98,214.731ZM731.98,265.301L731.98,341.339C731.98,351.39 723.821,359.55 713.77,359.55L660.28,359.55C668.931,359.489 676.886,359.361 683.823,359.134C718.544,357.999 731.52,352.649 731.797,315.349C731.881,304.128 731.948,285.972 731.98,265.301ZM660.28,359.55C650.956,359.615 640.822,359.602 630.279,359.55L660.28,359.55ZM630.279,359.55L627.061,359.55L627.061,359.532C628.137,359.538 629.211,359.544 630.279,359.55ZM627.061,359.55L553.254,359.55C543.203,359.55 535.043,351.39 535.043,341.339L535.043,104.636C535.043,94.586 543.203,86.426 553.254,86.426L713.77,86.426C723.821,86.426 731.98,94.586 731.98,104.636L731.98,214.731C731.923,179.737 731.734,147.068 731.33,134.716C730.195,99.994 724.845,87.019 687.545,86.741C649.703,86.46 609.723,86.145 583.637,86.997C548.916,88.132 535.94,93.482 535.663,130.782C535.647,132.907 535.63,135.28 535.613,137.871C535.157,139.491 535.164,141.218 535.579,143.041C535.285,189.22 534.865,287.495 535.639,311.189C535.645,311.369 535.651,311.549 535.657,311.728L535.663,335.177C535.663,335.177 541.953,358.573 570.271,359.061C598.589,359.55 627.061,359.55 627.061,359.55ZM535.613,137.871C535.613,137.869 535.614,137.868 535.614,137.866L535.615,143.198C535.603,143.145 535.591,143.093 535.579,143.041C535.59,141.236 535.602,139.51 535.613,137.871ZM627.061,359.532C611.552,359.445 595.258,359.282 579.424,359.164C542.318,358.888 536.83,346.045 535.657,311.728L535.615,143.198C539.554,159.637 576.354,183.899 607.178,209.471C611.974,213.45 619.758,220.475 623.289,226.898C627.291,234.179 627.576,248.613 627.576,248.613L627.061,359.532Z"/>
      <g id="k">
        <path id="frame" fill="none" stroke="url(#lgradk)" d="M777.083,180.719L777.083,231.289C777.055,214.293 777.058,196.75 777.083,180.719M777.083,231.289C777.14,266.283 777.33,298.952 777.733,311.304C778.868,346.026 784.219,359.001 821.518,359.278C859.36,359.56 899.34,359.875 925.426,359.023C960.148,357.888 973.123,352.538 973.4,315.238C973.682,277.396 974.277,160.917 973.424,134.83C972.29,100.109 966.939,87.133 929.64,86.856C912.706,86.73 895.246,86.552 878.784,86.47L955.81,86.47C965.86,86.47 974.02,94.63 974.02,104.68L974.02,341.384C974.02,351.434 965.86,359.594 955.81,359.594L795.293,359.594C785.243,359.594 777.083,351.434 777.083,341.384L777.083,231.289M878.784,86.47L848.783,86.47C858.107,86.405 868.241,86.418 878.784,86.47M848.783,86.47C840.132,86.531 832.178,86.659 825.241,86.886C790.519,88.02 777.543,93.371 777.266,130.67C777.183,141.892 777.115,160.048 777.083,180.719L777.083,104.68C777.083,94.63 785.243,86.47 795.293,86.47L848.783,86.47"/>
        <path id="fill"  fill="url(#lgradk)" stroke="url(#lgradk)" d="M974,313.214L855.439,223.01L974,132.806L974,313.214"/>
      </g>
    </g>
  </g>
</svg>
