<?xml version="1.0" encoding="UTF-8" standalone="no"?>
<!DOCTYPE svg PUBLIC "-//W3C//DTD SVG 1.1//EN" "http://www.w3.org/Graphics/SVG/1.1/DTD/svg11.dtd">
<svg width="100%" height="100%" viewBox="0 0 1024 1024" version="1.1" xmlns="http://www.w3.org/2000/svg" xmlns:xlink="http://www.w3.org/1999/xlink" xml:space="preserve" xmlns:serif="http://www.serif.com/" style="fill-rule:evenodd;clip-rule:evenodd;stroke-linecap:round;stroke-linejoin:round;stroke-miterlimit:1.5;">
    <defs>
        <linearGradient id="lgrad" x1="0%" y1="0%" x2="100%" y2="90%">
        <stop offset="0%" style="stop-color:#2eaab6;stop-opacity:1" />
        <stop offset="100%" style="stop-color:#c9377b;stop-opacity:1" />
        </linearGradient>
    </defs>
    <rect id="Artboard1" x="0" y="0" width="1024" height="1024" style="fill:none;"/>
    <g id="Artboard11" serif:id="Artboard1" fill="none" stroke="url(#lgrad)" stroke-width="64px">
        <g id="logo" serif:id="logo">
        <path id="lightning-book" d="M824.809,798.584L824.809,225.416L448.134,512L824.809,798.584L199.191,538.302L199.191,888.081C199.191,920.012 225.115,945.936 257.045,945.936L767.017,945.936C798.948,945.936 824.872,920.012 824.872,888.081L824.872,136.059C824.872,104.129 798.948,78.205 767.017,78.205L522.301,78.205C574.602,78.465 630.074,79.03 683.873,79.43C802.376,80.311 819.375,121.535 822.98,231.848C825.688,314.726 823.798,684.789 822.904,805.015C822.024,923.518 780.799,940.517 670.486,944.122C587.609,946.83 460.59,945.828 340.363,944.934C221.861,944.053 204.862,902.829 201.257,792.516C199.975,753.273 199.374,649.48 199.191,538.302L199.191,377.639L199.191,538.302C199.102,484.307 199.112,428.57 199.191,377.639L426.988,78.205L257.045,78.205C225.115,78.205 199.191,104.129 199.191,136.059L199.191,377.639C199.292,311.965 199.508,254.282 199.773,218.631C200.654,100.129 241.878,83.13 352.191,79.525C374.23,78.805 399.501,78.398 426.988,78.205L522.301,78.205L426.988,78.205C456.61,77.997 488.805,78.038 522.301,78.205"/>
        </g>
    </g>
</svg>